<?xml version="1.0" ?>
<svg width="200" height="200" xmlns="http://www.w3.org/2000/svg">
<g stroke="#007FFF" stroke-width="5">
	<line x1="70" y1="5" x2="130" y2="5" />
	<line x1="20" y1="15" x2="180" y2="15" />
	<line x1="30" y1="25" x2="170" y2="25" />
	<line x1="30" y1="35" x2="70" y2="35" />
	<line x1="80" y1="35" x2="120" y2="35" />
	<line x1="130" y1="35" x2="170" y2="35" />
	<line x1="30" y1="45" x2="70" y2="45" />
	<line x1="80" y1="45" x2="120" y2="45" />
	<line x1="130" y1="45" x2="170" y2="45" />
	<line x1="30" y1="55" x2="70" y2="55" />
	<line x1="80" y1="55" x2="120" y2="55" />
	<line x1="130" y1="55" x2="170" y2="55" />
	<line x1="30" y1="65" x2="70" y2="65" />
	<line x1="80" y1="65" x2="120" y2="65" />
	<line x1="130" y1="65" x2="170" y2="65" />
	<line x1="30" y1="75" x2="70" y2="75" />
	<line x1="80" y1="75" x2="120" y2="75" />
	<line x1="130" y1="75" x2="170" y2="75" />
	<line x1="30" y1="85" x2="70" y2="85" />
	<line x1="80" y1="85" x2="120" y2="85" />
	<line x1="130" y1="85" x2="170" y2="85" />
	<line x1="30" y1="95" x2="70" y2="95" />
	<line x1="80" y1="95" x2="120" y2="95" />
	<line x1="130" y1="95" x2="170" y2="95" />
	<line x1="30" y1="105" x2="70" y2="105" />
	<line x1="80" y1="105" x2="120" y2="105" />
	<line x1="130" y1="105" x2="170" y2="105" />
	<line x1="30" y1="115" x2="70" y2="115" />
	<line x1="80" y1="115" x2="120" y2="115" />
	<line x1="130" y1="115" x2="170" y2="115" />
	<line x1="30" y1="125" x2="70" y2="125" />
	<line x1="80" y1="125" x2="120" y2="125" />
	<line x1="130" y1="125" x2="170" y2="125" />
	<line x1="30" y1="135" x2="70" y2="135" />
	<line x1="80" y1="135" x2="120" y2="135" />
	<line x1="130" y1="135" x2="170" y2="135" />
	<line x1="30" y1="145" x2="70" y2="145" />
	<line x1="80" y1="145" x2="120" y2="145" />
	<line x1="130" y1="145" x2="170" y2="145" />
	<line x1="30" y1="155" x2="70" y2="155" />
	<line x1="80" y1="155" x2="120" y2="155" />
	<line x1="130" y1="155" x2="170" y2="155" />
	<line x1="30" y1="165" x2="70" y2="165" />
	<line x1="80" y1="165" x2="120" y2="165" />
	<line x1="130" y1="165" x2="170" y2="165" />
	<line x1="30" y1="175" x2="70" y2="175" />
	<line x1="80" y1="175" x2="120" y2="175" />
	<line x1="130" y1="175" x2="170" y2="175" />
	<line x1="30" y1="185" x2="170" y2="185" />
	<line x1="40" y1="195" x2="160" y2="195" />
</g>
</svg>
