<?xml version="1.0" ?>
<svg width="500" height="500" xmlns="http://www.w3.org/2000/svg">
<polygon fill="#007FFF" points="500,250 375,33.494 125,33.494 0,250 125,466.506 375,466.506" />
<polygon points="490,250 370,42.154 130,42.154 10,250 130,457.846 370,457.846" />
<path fill="#007FFF" d="M250,250 m20,30 a30,20 -30 1 1 -10,-10 v-100 c0,10 40,40 40,70 q0,-10 -30,-35" />
<path fill="none" stroke="#007FFF" stroke-width="2" d="M55,160 c120,120 200,0 420,120
                                                       M50,170 c120,120 200,0 420,120
                                                       M45,180 c120,120 200,0 420,120
                                                       M40,190 c120,120 200,0 420,120
                                                       M35,200 c120,120 200,0 420,120" />
</svg>