<?xml version="1.0" ?>
<svg width="500" height="500" xmlns="http://www.w3.org/2000/svg">
<polygon fill="#007FFF" points="500,250 375,33.494 125,33.494 0,250 125,466.506 375,466.506" />
<polygon points="490,250 370,42.154 130,42.154 10,250 130,457.846 370,457.846" />

<!-- The board -->
<polygon fill="#007FFF" opacity="0.5" points="100,270 320,440 470,270 250,140" />

<!-- Pawn -->
<path stroke="#007FFF" stroke-width="5" d="M180,280 a30,10 0 0 0 60,0 v-60 c0,-20 -20,-40 -10,-80 a20,30 0 0 0 -40,0 c10,40 -10,60 -10,80 z" />

<!-- Die -->
<path stroke="#007FFF" stroke-width="5" d="M230,310 v-100 l90,-30 l60,50 v100 l-90,30 z m60,50 v-100 l90,-30 m-90,30 l-60,-50 m10,20" />
<path fill="#007FFF" d="M240,247 a5,10 0 0 0 10,0 a5,10 0 0 0 -10,0 m0,48 a5,10 0 0 0 10,0 a5,10 0 0 0 -10,0 m30,27 a5,10 0 0 0 10,0 a5,10 0 0 0 -10,0 m0,-48 a5,10 0 0 0 10,0 a5,10 0 0 0 -10,0" />
<path fill="#007FFF" d="M256,215 a8,6 0 0 0 16,0 a8,6 0 0 0 -16,0 m25,-8 a8,6 0 0 0 16,0 a8,6 0 0 0 -16,0 m25,-8 a8,6 0 0 0 16,0 a8,6 0 0 0 -16,0 m-21,40 a8,6 0 0 0 16,0 a8,6 0 0 0 -16,0 m25,-8 a8,6 0 0 0 16,0 a8,6 0 0 0 -16,0 m25,-8 a8,6 0 0 0 16,0 a8,6 0 0 0 -16,0" />
<path fill="#007FFF" d="M305,280 a7,8 0 0 0 14,0 a7,8 0 0 0 -14,0 m45,30 a7,8 0 0 0 14,0 a7,8 0 0 0 -14,0" />
</svg>
