<?xml version="1.0" encoding="utf-8"?>
<svg width="500" height="500" xmlns="http://www.w3.org/2000/svg">
<polygon points="490,250 370,42.154 130,42.154 10,250 130,457.846 370,457.846" />

<!-- Map elements -->
<path fill="none" stroke="#003F7F" stroke-width="30" d="M92,100 c200,50 260,150 350,240" />
<path fill="none" stroke="#003F7F" stroke-width="20" d="M150,120 q0,150 -75,250
                                                        M110,300 q170,30 230,162
                                                        M290,390 q30,-80 70,-120
                                                        M320,200 c50,-60 15,-120 30,-162.5" />

<!-- The pin -->
<path fill="#007FFF" d="M250,300 l-30,-100 a32,32 0 1 1 60,0 z m-15,-110 a15,15 0 0 0 30,0 a15,15 0 0 0 -30,0" />
<path fill="none" stroke="#007FFF" stroke-width="5" d="M200,300 a50,20 0 0 0 100,0 a50,20 0 0 0 -100,0" />

<path fill="#007FFF" d="M500,250 375,33.494 125,33.494 0,250 125,466.506 375,466.506 M370,457.846 130,457.846 10,250 130,42.154 370,42.154 490,250"/>
</svg>